<?xml version="1.0" standalone="no"?>
<!DOCTYPE svg PUBLIC "-//W3C//DTD SVG 20010904//EN" "http://www.w3.org/TR/2001/REC-SVG-20010904/DTD/svg10.dtd">
<!-- Created using Krita: https://krita.org -->
<svg xmlns="http://www.w3.org/2000/svg" 
    xmlns:xlink="http://www.w3.org/1999/xlink"
    xmlns:krita="http://krita.org/namespaces/svg/krita"
    xmlns:sodipodi="http://sodipodi.sourceforge.net/DTD/sodipodi-0.dtd"
    width="345.6pt"
    height="345.6pt"
    viewBox="0 0 345.6 345.6">
<defs/>
<path id="shape0" transform="matrix(2.00469574075417 0 0 2.00469574075417 4.00659775567513 45.9487267145061)" fill="#d5bf9d" fill-rule="evenodd" stroke="#d5bf9d" stroke-width="2.4" stroke-linecap="square" stroke-linejoin="bevel" d="M129.96 0C70.465 19.8808 30.7934 56.2811 0 100.08C15.84 41.52 59.16 8.16 129.96 0Z" sodipodi:nodetypes="ccc"/><path id="shape01" transform="matrix(1.87915898386108 0.698259641087839 -0.698259641087839 1.87915898386108 76.0982111937147 53.6767499809651)" fill="#d5bf9d" fill-rule="evenodd" stroke="#d5bf9d" stroke-width="2.4" stroke-linecap="square" stroke-linejoin="bevel" d="M129.96 0C70.465 19.8808 30.7934 56.2811 0 100.08C15.84 41.52 59.16 8.16 129.96 0Z" sodipodi:nodetypes="ccc"/><path id="shape02" transform="matrix(1.62123195144045 1.17915731462198 -1.17915731462198 1.62123195144045 126.450690767383 82.4867769801491)" fill="#d5bf9d" fill-rule="evenodd" stroke="#d5bf9d" stroke-width="2.4" stroke-linecap="square" stroke-linejoin="bevel" d="M129.96 0C70.465 19.8808 30.7934 56.2811 0 100.08C15.84 41.52 59.16 8.16 129.96 0Z" sodipodi:nodetypes="ccc"/><rect id="shape1" transform="matrix(2.00469574075417 0 0 2.00469574075417 2.96217606041699 241.049103347383)" fill="#8cd3d7" fill-rule="evenodd" stroke="#8cd3d7" stroke-width="2.4" stroke-linecap="square" stroke-linejoin="bevel" width="169.440000781056" height="6.72"/>
</svg>
